<?xml version="1.0" standalone="no"?><!DOCTYPE svg PUBLIC "-//W3C//DTD SVG 1.1//EN" "http://www.w3.org/Graphics/SVG/1.1/DTD/svg11.dtd"><svg t="1685068759893" class="icon" viewBox="0 0 1024 1024" version="1.1" xmlns="http://www.w3.org/2000/svg" p-id="2526" xmlns:xlink="http://www.w3.org/1999/xlink" width="200" height="200"><path d="M597.333333 768h-85.333333v-85.333333z" p-id="2527" fill="#1296db"></path><path d="M682.666667 955.733333H256c-60.1088 0-95.6416-30.139733-101.5296-85.333333H85.333333a17.066667 17.066667 0 1 1 0-34.133333h68.266667v-136.533334H85.333333a17.066667 17.066667 0 1 1 0-34.133333h68.266667v-136.533333H85.333333a17.066667 17.066667 0 1 1 0-34.133334h68.266667v-136.533333H85.333333a17.066667 17.066667 0 0 1 0-34.133333h68.266667v-136.533334H85.333333a17.066667 17.066667 0 0 1 0-34.133333h69.137067C160.3584 98.389333 195.8912 68.266667 256 68.266667h426.666667c66.030933 0 102.4 36.369067 102.4 102.4v214.801066l56.200533-56.200533a17.0496 17.0496 0 0 1 24.132267 0l85.333333 85.333333a17.0496 17.0496 0 0 1 0 24.132267L785.066667 604.398933V853.333333c0 66.030933-36.369067 102.4-102.4 102.4z m-493.858134-85.333333c4.829867 35.242667 26.112 51.2 67.191467 51.2h426.666667c47.223467 0 68.266667-21.0432 68.266666-68.266667V638.532267l-141.448533 141.448533-0.597333 0.580267a17.066667 17.066667 0 0 1-10.7008 4.488533h-0.119467-0.170667-0.017066L597.845333 785.066667h-0.0512-0.017066-0.034134-85.76a17.066667 17.066667 0 0 1-17.066666-17.066667v-85.333333-0.0512-0.017067-0.034133-0.017067-0.034133-0.0512-0.017067-0.0512-0.0512-0.034133-0.0512-0.017067-0.034133-0.017067-0.034133-0.034134-0.017066-0.0512-0.017067-0.085333-0.017067-0.068267-0.0512a16.9472 16.9472 0 0 1 5.0688-11.298133L750.933333 419.601067V170.666667c0-47.223467-21.0432-68.266667-68.266666-68.266667H256c-41.079467 0-62.3616 15.957333-67.191467 51.2H256a17.066667 17.066667 0 0 1 0 34.133333h-68.266667v136.533334h68.266667a17.066667 17.066667 0 0 1 0 34.133333h-68.266667v136.533333h68.266667a17.066667 17.066667 0 0 1 0 34.133334h-68.266667v136.533333h68.266667a17.066667 17.066667 0 1 1 0 34.133333h-68.266667v136.533334h68.266667a17.066667 17.066667 0 1 1 0 34.133333h-67.191467zM529.066667 750.933333h27.067733L529.066667 723.8656V750.933333z m7.0656-68.266666L597.333333 743.867733 829.201067 512 768 450.798933 536.132267 682.666667z m256-256L853.333333 487.867733 914.5344 426.666667 853.333333 365.4656 792.132267 426.666667z" p-id="2528" fill="#1296db"></path></svg>